PathFileType	4	(X/Y/Z)	/home/nbianco/projects/addbio/data/HamnerRunning2013/Processed/subject02//results/MarkerData/run300.trc
DataRate	CameraRate	NumFrames	NumMarkers	Units	OrigDataRate	OrigDataStartFrame	OrigNumFrames
119.99	119.99	10	42	m	119.99	201	269
Frame#	Time	C7			CLAV			LACR			LASI			LCAL			LFAradius			LFAsuperior			LFAulna			LLEL			LMEL			LMT5			LPSI			LTB1			LTB2			LTB3			LTH1			LTH2			LTH3			LTOE			LUA1			LUA2			LUA3			RACR			RASI			RCAL			RFAradius			RFAsuperior			RFAulna			RLEL			RMEL			RMT5			RPSI			RTB1			RTB2			RTB3			RTH1			RTH2			RTH3			RTOE			RUA1			RUA2			RUA3		
		X1	Y1	Z1	X2	Y2	Z2	X3	Y3	Z3	X4	Y4	Z4	X5	Y5	Z5	X6	Y6	Z6	X7	Y7	Z7	X8	Y8	Z8	X9	Y9	Z9	X10	Y10	Z10	X11	Y11	Z11	X12	Y12	Z12	X13	Y13	Z13	X14	Y14	Z14	X15	Y15	Z15	X16	Y16	Z16	X17	Y17	Z17	X18	Y18	Z18	X19	Y19	Z19	X20	Y20	Z20	X21	Y21	Z21	X22	Y22	Z22	X23	Y23	Z23	X24	Y24	Z24	X25	Y25	Z25	X26	Y26	Z26	X27	Y27	Z27	X28	Y28	Z28	X29	Y29	Z29	X30	Y30	Z30	X31	Y31	Z31	X32	Y32	Z32	X33	Y33	Z33	X34	Y34	Z34	X35	Y35	Z35	X36	Y36	Z36	X37	Y37	Z37	X38	Y38	Z38	X39	Y39	Z39	X40	Y40	Z40	X41	Y41	Z41	X42	Y42	Z42

202	2.80833	0.860451	1.53482	-0.334661	0.980272	1.43489	-0.295331	0.952321	1.49685	-0.505659	0.927997	1.01713	-0.462127	0.584389	0.411512	-0.40216	0.989107	1.11679	-0.477996	0.87916	1.15615	-0.619765	0.980043	1.05696	-0.516976	0.796673	1.19247	-0.662183	0.735595	1.1919	-0.598365	0.602326	0.249616	-0.489393	0.738794	1.05818	-0.401142	0.943868	0.427692	-0.405705	0.855637	0.411741	-0.463883	0.750221	0.355497	-0.409907	0.920272	0.806443	-0.504155	1.0187	0.709813	-0.484522	0.989136	0.590742	-0.467056	0.646172	0.186123	-0.406877	0.925768	1.4096	-0.583126	0.919693	1.33677	-0.577688	0.82393	1.34753	-0.596115	0.919944	1.49212	-0.161159	0.893111	1.04481	-0.204564	0.609621	0.113622	-0.34776	1.06861	1.1103	-0.102928	0.929037	1.15235	0.0071832	1.07145	1.08563	-0.0334037	0.820781	1.17123	0.0232972	0.789696	1.14557	-0.0498087	0.766961	0.0481257	-0.268847	0.725629	1.06191	-0.32193	0.877442	0.362102	-0.303493	0.830549	0.302325	-0.242837	0.79121	0.219617	-0.321244	0.833236	0.874566	-0.154987	0.896271	0.769886	-0.161448	0.840998	0.649687	-0.206207	0.839786	0.0679378	-0.363594	0.898163	1.39053	-0.0792459	0.8993	1.3006	-0.0749334	0.826327	1.29628	-0.0456246
203	2.81667	0.859957	1.53869	-0.333843	0.980213	1.43943	-0.296885	0.948578	1.50164	-0.506178	0.928121	1.02133	-0.461424	0.603189	0.396931	-0.402258	0.98083	1.1262	-0.481659	0.870193	1.16658	-0.620645	0.972572	1.0667	-0.521338	0.786304	1.20124	-0.662306	0.726492	1.20092	-0.597464	0.631932	0.237147	-0.490664	0.738715	1.06228	-0.401306	0.96263	0.430816	-0.404873	0.874898	0.413501	-0.463616	0.772864	0.350865	-0.410025	0.924308	0.812775	-0.503929	1.02648	0.720104	-0.483927	1.00105	0.600461	-0.466816	0.679917	0.176525	-0.408026	0.919398	1.41604	-0.584157	0.912836	1.34341	-0.579937	0.816431	1.35551	-0.595415	0.922717	1.49732	-0.161983	0.891513	1.04607	-0.203073	0.585493	0.1161	-0.347603	1.08019	1.12799	-0.110528	0.941675	1.16069	0.00336669	1.08554	1.10136	-0.0418666	0.833188	1.17383	0.0228359	0.800816	1.14821	-0.0501467	0.741828	0.0483053	-0.269092	0.72547	1.06561	-0.321934	0.856411	0.361872	-0.304325	0.808401	0.302962	-0.243639	0.768092	0.220469	-0.321831	0.827962	0.876385	-0.155629	0.886503	0.769799	-0.162367	0.827141	0.651687	-0.207641	0.814924	0.0676539	-0.363448	0.903213	1.39586	-0.0799702	0.906957	1.30554	-0.0764887	0.835756	1.29969	-0.0430791
204	2.825	0.859653	1.54313	-0.332985	0.980371	1.44473	-0.298441	0.944653	1.50713	-0.506618	0.928564	1.02617	-0.461002	0.622519	0.380984	-0.401801	0.972997	1.13638	-0.485301	0.861251	1.17754	-0.621142	0.965408	1.07701	-0.525424	0.776042	1.21085	-0.662045	0.7176	1.2106	-0.596175	0.66266	0.224369	-0.491737	0.738929	1.06702	-0.401254	0.980768	0.433728	-0.403939	0.893491	0.415127	-0.463113	0.795543	0.345891	-0.409831	0.92831	0.819707	-0.503798	1.03366	0.730902	-0.483313	1.0119	0.61078	-0.466705	0.714901	0.166817	-0.408925	0.912696	1.42345	-0.585095	0.905961	1.35094	-0.582157	0.809108	1.36414	-0.594526	0.925464	1.50327	-0.162863	0.890288	1.04766	-0.201623	0.561716	0.119542	-0.347457	1.08996	1.1467	-0.118321	0.953212	1.16994	-0.000669787	1.098	1.11816	-0.050868	0.844894	1.17762	0.0219808	0.81104	1.15223	-0.0509057	0.716677	0.0485858	-0.269607	0.725568	1.06985	-0.321712	0.835198	0.362606	-0.30548	0.786036	0.30454	-0.244772	0.745126	0.222053	-0.32261	0.822627	0.878614	-0.15658	0.877214	0.770371	-0.163644	0.813455	0.654573	-0.209227	0.790153	0.0674254	-0.36352	0.907972	1.40205	-0.0807503	0.914372	1.31139	-0.0784085	0.84514	1.30445	-0.0410042
205	2.83333	0.859512	1.548	-0.332144	0.980777	1.45062	-0.299921	0.940708	1.5131	-0.506895	0.929238	1.03157	-0.460233	0.642657	0.363811	-0.400799	0.965523	1.14694	-0.488707	0.851964	1.18817	-0.621959	0.958452	1.08757	-0.529098	0.765917	1.22106	-0.661455	0.709006	1.22082	-0.594462	0.694401	0.21138	-0.492373	0.739444	1.07233	-0.401038	0.998218	0.43672	-0.403165	0.911431	0.416431	-0.46242	0.818245	0.340578	-0.409342	0.932333	0.827245	-0.50384	1.04028	0.742043	-0.482719	1.02169	0.621467	-0.466722	0.750942	0.157049	-0.409511	0.9059	1.43163	-0.585913	0.899199	1.35912	-0.584223	0.802142	1.37318	-0.593385	0.928143	1.5098	-0.163791	0.889565	1.04966	-0.200325	0.538408	0.124161	-0.347242	1.09793	1.16607	-0.126182	0.963568	1.17986	-0.00476693	1.10873	1.13568	-0.060346	0.855783	1.1824	0.0208242	0.820232	1.15744	-0.05194	0.691544	0.0490186	-0.270377	0.725996	1.07454	-0.321313	0.814015	0.364326	-0.306753	0.763695	0.307127	-0.246039	0.722411	0.224483	-0.323414	0.817622	0.881375	-0.157701	0.868711	0.771598	-0.165269	0.800157	0.65833	-0.210849	0.765496	0.0672099	-0.363733	0.912669	1.40886	-0.081591	0.92143	1.318	-0.0804793	0.854184	1.31031	-0.0394958
206	2.84167	0.859526	1.55319	-0.331381	0.981413	1.45699	-0.301281	0.936959	1.51933	-0.506979	0.930048	1.03739	-0.45889	0.663902	0.345581	-0.39928	0.958339	1.15759	-0.491761	0.84243	1.19837	-0.623356	0.951658	1.09824	-0.532427	0.755971	1.23167	-0.660588	0.700707	1.2315	-0.59226	0.727002	0.198234	-0.492364	0.740228	1.07808	-0.40073	1.01486	0.4403	-0.40271	0.928799	0.417259	-0.461633	0.841048	0.334948	-0.408619	0.93626	0.8353	-0.504031	1.04627	0.75336	-0.482216	1.03039	0.63227	-0.466841	0.787872	0.147419	-0.409744	0.89934	1.44032	-0.586556	0.892702	1.36772	-0.586034	0.795662	1.38245	-0.591955	0.930717	1.51678	-0.164757	0.88946	1.05207	-0.199253	0.51574	0.130082	-0.346891	1.10415	1.18572	-0.13398	0.972768	1.1903	-0.00887369	1.11773	1.15357	-0.0700687	0.865821	1.18794	0.0194462	0.828413	1.16355	-0.05311	0.666528	0.0496978	-0.271303	0.726833	1.0796	-0.320794	0.793104	0.367001	-0.307882	0.741683	0.31076	-0.247181	0.700063	0.227887	-0.324055	0.813357	0.884661	-0.158845	0.860976	0.773403	-0.167158	0.787394	0.662846	-0.212398	0.741013	0.0669339	-0.363917	0.917411	1.41614	-0.0825368	0.928041	1.32521	-0.0825117	0.862641	1.31694	-0.0385564
207	2.85	0.859706	1.55864	-0.330749	0.98222	1.46374	-0.30253	0.933632	1.52565	-0.506913	0.930925	1.04347	-0.457418	0.686495	0.326513	-0.397321	0.951472	1.16817	-0.494554	0.833013	1.2084	-0.625006	0.945	1.10891	-0.535526	0.746278	1.2425	-0.659448	0.692667	1.24257	-0.589536	0.760361	0.185001	-0.49165	0.74119	1.08422	-0.400381	1.03054	0.444815	-0.402482	0.94571	0.4175	-0.460843	0.864044	0.329045	-0.407711	0.939888	0.843689	-0.504275	1.05156	0.76469	-0.481864	1.03796	0.642957	-0.467049	0.825532	0.138254	-0.409589	0.893349	1.44927	-0.586959	0.886613	1.37653	-0.587514	0.789719	1.39185	-0.590208	0.933168	1.52408	-0.165753	0.890074	1.05488	-0.198501	0.49392	0.137332	-0.34637	1.10871	1.20529	-0.14159	0.980889	1.20106	-0.012995	1.12508	1.17152	-0.0797056	0.875032	1.19405	0.0179231	0.835801	1.17022	-0.0543108	0.641758	0.0507387	-0.272235	0.72812	1.08496	-0.32019	0.772658	0.370584	-0.308639	0.720243	0.315426	-0.247957	0.678235	0.232327	-0.324353	0.81006	0.888356	-0.159924	0.853829	0.775708	-0.169161	0.775266	0.668003	-0.213788	0.716783	0.0665381	-0.363904	0.922182	1.42376	-0.0836103	0.934141	1.33288	-0.0843957	0.870338	1.32401	-0.0381468
208	2.85833	0.860057	1.56428	-0.330278	0.983117	1.47072	-0.303714	0.930896	1.53193	-0.506786	0.93186	1.04971	-0.456553	0.710535	0.30688	-0.395071	0.945025	1.1786	-0.497262	0.824012	1.2185	-0.626275	0.938425	1.11946	-0.538396	0.736929	1.25344	-0.657975	0.68493	1.2539	-0.586361	0.79447	0.171793	-0.490308	0.74224	1.0907	-0.399997	1.04509	0.450156	-0.402217	0.962267	0.417089	-0.460107	0.887267	0.322939	-0.406621	0.943048	0.852222	-0.504518	1.05604	0.77584	-0.481663	1.04432	0.653325	-0.467329	0.863764	0.129864	-0.408955	0.888175	1.45818	-0.587087	0.881031	1.3854	-0.588611	0.784309	1.40132	-0.58812	0.935519	1.53156	-0.166793	0.891477	1.05806	-0.19819	0.473154	0.145836	-0.345669	1.11169	1.22447	-0.148915	0.98801	1.21197	-0.0171178	1.13091	1.18925	-0.088994	0.883441	1.2006	0.0163344	0.842687	1.17712	-0.0554857	0.617348	0.0522244	-0.273028	0.729837	1.09056	-0.319498	0.75282	0.375043	-0.308899	0.69951	0.32106	-0.248223	0.657114	0.23774	-0.32418	0.807707	0.892319	-0.160914	0.847147	0.778492	-0.171106	0.763843	0.67374	-0.214963	0.692867	0.0660212	-0.363643	0.926875	1.43159	-0.0847853	0.939703	1.34084	-0.0860993	0.877171	1.3313	-0.0382129
209	2.86667	0.860555	1.57005	-0.329976	0.984027	1.47777	-0.304892	0.928816	1.5381	-0.50669	0.93291	1.05616	-0.45665	0.735959	0.286989	-0.392751	0.939088	1.18881	-0.499922	0.815511	1.22865	-0.626695	0.93186	1.12974	-0.54091	0.728018	1.26437	-0.656086	0.677723	1.2653	-0.582923	0.829416	0.15875	-0.488422	0.743385	1.09749	-0.399553	1.05839	0.455781	-0.401724	0.97851	0.41602	-0.459453	0.910672	0.316718	-0.405318	0.945688	0.860782	-0.504805	1.05965	0.786561	-0.48155	1.04933	0.663145	-0.46758	0.902423	0.122453	-0.407663	0.883919	1.46683	-0.586957	0.875999	1.39414	-0.5893	0.779409	1.41086	-0.585678	0.937804	1.53908	-0.167915	0.893679	1.06158	-0.198396	0.453611	0.155449	-0.344792	1.11325	1.24305	-0.155897	0.994184	1.22285	-0.0211861	1.13534	1.20655	-0.0978405	0.891048	1.20747	0.014756	0.849206	1.18402	-0.056609	0.593369	0.0541628	-0.273597	0.731914	1.09635	-0.3187	0.733726	0.380359	-0.308659	0.67956	0.327567	-0.247955	0.636904	0.243953	-0.323482	0.806115	0.896464	-0.161811	0.840956	0.781781	-0.172848	0.753197	0.680051	-0.215879	0.669286	0.065448	-0.363224	0.931329	1.43951	-0.0860008	0.944724	1.34893	-0.0876327	0.883098	1.33863	-0.038689
210	2.875	0.861152	1.57585	-0.329824	0.984891	1.48473	-0.306095	0.927339	1.54412	-0.506672	0.93416	1.06297	-0.457392	0.762578	0.267119	-0.390617	0.933665	1.19868	-0.502337	0.807474	1.23872	-0.626295	0.925272	1.1396	-0.542926	0.71963	1.27518	-0.653763	0.671398	1.27649	-0.57944	0.865313	0.146022	-0.485972	0.744749	1.10449	-0.399009	1.07046	0.461036	-0.401047	0.994385	0.414343	-0.458894	0.93415	0.310492	-0.403806	0.947864	0.869293	-0.505199	1.06235	0.796528	-0.481444	1.05277	0.672106	-0.467567	0.941367	0.116168	-0.405503	0.880537	1.47501	-0.586627	0.871515	1.40259	-0.589594	0.775019	1.42037	-0.582896	0.940039	1.5465	-0.169159	0.896599	1.06539	-0.199075	0.435445	0.166017	-0.343745	1.11353	1.26085	-0.162515	0.999435	1.23358	-0.0251317	1.13849	1.22324	-0.106273	0.897831	1.21454	0.0132424	0.855223	1.19086	-0.0576578	0.56985	0.0565032	-0.273922	0.73427	1.10229	-0.317781	0.715566	0.386506	-0.308008	0.660516	0.334845	-0.247215	0.617824	0.250765	-0.322291	0.805088	0.900781	-0.162575	0.835366	0.785596	-0.174301	0.743402	0.686927	-0.216483	0.646018	0.0649085	-0.362794	0.935373	1.44743	-0.08719	0.949227	1.35701	-0.0890102	0.888128	1.34595	-0.039503
211	2.88333	0.861801	1.58154	-0.329787	0.98568	1.49144	-0.307309	0.926342	1.54996	-0.506723	0.935645	1.07018	-0.458156	0.790149	0.247475	-0.388894	0.928686	1.20806	-0.504254	0.799897	1.24857	-0.625523	0.918722	1.14887	-0.544395	0.71184	1.2858	-0.651102	0.666206	1.28723	-0.576047	0.902213	0.133785	-0.482824	0.746485	1.11153	-0.39833	1.08141	0.465478	-0.400378	1.00977	0.412144	-0.458434	0.957574	0.304381	-0.402175	0.949658	0.87759	-0.505651	1.0641	0.805363	-0.48132	1.05441	0.679836	-0.467015	0.980414	0.111223	-0.402321	0.877885	1.48263	-0.58616	0.867551	1.41063	-0.589553	0.771168	1.42973	-0.579828	0.942192	1.55368	-0.170526	0.900079	1.06943	-0.200044	0.418856	0.177441	-0.342534	1.11271	1.27771	-0.168764	1.00377	1.24404	-0.0289113	1.14047	1.2392	-0.114313	0.90377	1.22166	0.011816	0.860453	1.19764	-0.0586031	0.546802	0.0592183	-0.274025	0.736853	1.10828	-0.316743	0.698587	0.393408	-0.307065	0.642598	0.342806	-0.246101	0.600103	0.258036	-0.32071	0.804499	0.905288	-0.163124	0.830449	0.789897	-0.175436	0.734537	0.694303	-0.216718	0.623014	0.064464	-0.362439	0.938873	1.45524	-0.088307	0.953235	1.36496	-0.0902283	0.892291	1.35317	-0.040591
